<svg id="Layer_1" data-name="Layer 1" xmlns="http://www.w3.org/2000/svg" viewBox="0 0 371.85 89.57"><title>lucasfads_logo</title><path d="M88,59.22a15.58,15.58,0,0,0-12.72,1.29,15.38,15.38,0,0,0-1.84,1.25h0A38.94,38.94,0,0,1,30.6,65.32,38.95,38.95,0,0,1,55.09,30h0A15.58,15.58,0,1,0,33.89,17.8h0q.06.45.12.91A39,39,0,0,1,18.35,54.79a38.93,38.93,0,0,1-7.72,4.39l-.85.35h0a15.58,15.58,0,1,0,15.42,26.7h0l.73-.56a38.91,38.91,0,0,1,46.73,0l.73.56h0A15.58,15.58,0,1,0,88,59.22Z"/><path d="M140.75,56.54V44.87a1.24,1.24,0,0,1,2.47,0V56.54a10.39,10.39,0,1,0,20.78,0V44.87a1.28,1.28,0,0,1,2.55,0V56.54a12.9,12.9,0,0,1-25.8,0Z"/><path d="M136.73,68.2a1.34,1.34,0,0,0-1.24-1.31H123.83A10.42,10.42,0,0,1,113.4,56.54V21.7a1.24,1.24,0,0,0-2.47,0V56.54a12.83,12.83,0,0,0,2.47,7.58,13,13,0,0,0,3,2.93,12.82,12.82,0,0,0,7.47,2.39h11.67a1.26,1.26,0,0,0,1.24-1.16s0,0,0,0S136.73,68.21,136.73,68.2Z"/><path d="M170.57,56.54a12.92,12.92,0,0,1,12.9-12.9,13.12,13.12,0,0,1,9.12,3.79,1.26,1.26,0,1,1-1.78,1.78,10.11,10.11,0,0,0-7.34-3.09,10.43,10.43,0,1,0,0,20.86,10.11,10.11,0,0,0,7.34-3.09,1.26,1.26,0,1,1,1.78,1.77,12.89,12.89,0,0,1-22-9.11Z"/><path d="M220.2,68.2V64.11a12.7,12.7,0,0,1-10.35,5.33,12.9,12.9,0,1,1,12.9-12.9V68.2a1.27,1.27,0,0,1-1.24,1.24A1.29,1.29,0,0,1,220.2,68.2ZM199.42,56.54a10.39,10.39,0,1,0,10.43-10.43A10.43,10.43,0,0,0,199.42,56.54Z"/><path d="M250.08,57a7.08,7.08,0,0,0-4.61-1.69H233.8A4.57,4.57,0,0,1,229.86,53a4.52,4.52,0,0,1-.62-2.28c0-2.27,1.89-4.64,3.84-4.64h18.26a1.24,1.24,0,0,0,0-2.47H233.79a7,7,0,0,0-5.38,2.55,7.11,7.11,0,0,0-1.64,4.56,7,7,0,0,0,.45,2.43,7.11,7.11,0,0,0,2,2.92,7,7,0,0,0,4.54,1.68h11.66a4.53,4.53,0,0,1,4,2.37,4.71,4.71,0,0,1,.58,2.26,4.57,4.57,0,0,1-3.74,4.48H228a1.34,1.34,0,0,0-1.23,1.31A1.27,1.27,0,0,0,228,69.44h17.47a7.12,7.12,0,0,0,5.46-2.55,7,7,0,0,0,1.63-4.48,7.16,7.16,0,0,0-2.5-5.41Z"/><path d="M282.39,44.87a1.27,1.27,0,0,0-1.24-1.24H259.06V33.29a10.43,10.43,0,0,1,10.43-10.43h11.66a1.24,1.24,0,0,0,0-2.47H269.49a12.83,12.83,0,0,0-7.58,2.47,13.06,13.06,0,0,0-2.85,2.85,12.83,12.83,0,0,0-2.47,7.58V68.2a1.24,1.24,0,0,0,2.47,0V46.11h9a13.06,13.06,0,0,0,1.4,0h11.66a1.26,1.26,0,0,0,1.24-1.16s0,0,0,0S282.39,44.88,282.39,44.87Z"/><path d="M309.66,68.2V46.11H288.88V68.2a1.24,1.24,0,0,1-2.47,0V33.29a12.9,12.9,0,1,1,25.8,0V68.2A1.27,1.27,0,0,1,311,69.44,1.29,1.29,0,0,1,309.66,68.2Zm0-34.91a10.39,10.39,0,1,0-20.78,0V43.64h20.78Z"/><path d="M316.23,56.54a12.92,12.92,0,0,1,12.9-12.9A12.69,12.69,0,0,1,339.48,49V21.62a1.29,1.29,0,0,1,1.31-1.24A1.27,1.27,0,0,1,342,21.62V56.54a12.9,12.9,0,0,1-25.8,0Zm2.47,0a10.39,10.39,0,1,0,10.43-10.43A10.43,10.43,0,0,0,318.71,56.54Z"/><path d="M371.4,53.15a13,13,0,0,0-4.76-7A12.83,12.83,0,0,0,359,43.64a10.39,10.39,0,1,1,0-20.78h11.66a1.24,1.24,0,1,0,0-2.47H359a12.92,12.92,0,0,0-12.9,12.9c0,.26,0,.53,0,.79,0,.05,0,.11,0,.16,0,.21,0,.41.06.62v.08a12.92,12.92,0,0,0,5.11,8.7A12.76,12.76,0,0,0,359,46.11h1.2c2.33,0,4.53,1.46,6.14,3.09A10.43,10.43,0,0,1,359,67h-11.7a1.24,1.24,0,0,0,0,2.47H359a12.9,12.9,0,0,0,11-6.22q.16-.27.31-.54a12.51,12.51,0,0,0,.54-1.13,12.87,12.87,0,0,0,.8-7.34C371.58,53.85,371.49,53.5,371.4,53.15Z"/></svg>